<?xml version="1.0" encoding="utf-8"?>
<!-- Generator: Adobe Illustrator 16.0.0, SVG Export Plug-In . SVG Version: 6.00 Build 0)  -->
<!DOCTYPE svg PUBLIC "-//W3C//DTD SVG 1.1//EN" "http://www.w3.org/Graphics/SVG/1.1/DTD/svg11.dtd">
<svg version="1.1" id="Layer_1" xmlns="http://www.w3.org/2000/svg" xmlns:xlink="http://www.w3.org/1999/xlink" x="0px" y="0px"
	 width="100px" height="38px" viewBox="0 0 100 38" enable-background="new 0 0 100 38" xml:space="preserve">
<g>
	<g>
		<path fill="#FFFFFF" d="M2.396,12.944h8.239c1.257,0,2.421,0.092,3.493,0.277c1.071,0.185,2.007,0.511,2.809,0.979
			c0.799,0.468,1.427,1.084,1.884,1.847c0.455,0.764,0.683,1.725,0.683,2.883c0,0.542-0.08,1.083-0.239,1.625
			c-0.161,0.543-0.402,1.048-0.721,1.517c-0.32,0.467-0.738,0.887-1.256,1.256c-0.518,0.369-1.122,0.64-1.811,0.812v0.148
			c1.723,0.319,3.023,0.937,3.898,1.848c0.875,0.911,1.312,2.18,1.312,3.805c0,1.232-0.241,2.291-0.721,3.178
			c-0.481,0.887-1.146,1.62-1.996,2.199s-1.842,1.01-2.974,1.293c-1.134,0.284-2.353,0.425-3.658,0.425H2.396V12.944z
			 M10.378,22.661c1.329,0,2.295-0.264,2.9-0.795c0.604-0.528,0.905-1.249,0.905-2.161c0-0.91-0.309-1.563-0.924-1.958
			s-1.565-0.591-2.845-0.591H7.828v5.504H10.378z M10.895,32.822c2.979,0,4.471-1.095,4.471-3.288c0-1.058-0.369-1.829-1.108-2.31
			c-0.738-0.479-1.861-0.721-3.362-0.721H7.828v6.318H10.895z"/>
		<path fill="#FFFFFF" d="M22.534,12.944h15.076v4.582h-9.645v4.841h8.203v4.544h-8.203v5.543h10.015v4.581H22.534V12.944z"/>
		<path fill="#FFFFFF" d="M40.676,12.648h1.921l5.248,14.78l1.994,5.542h0.148l1.922-5.542l5.246-14.78h1.921v24.387h-1.182V20.038
			c0-0.961,0.011-2.008,0.036-3.141c0.024-1.132,0.062-2.204,0.111-3.214h-0.147l-1.885,5.321l-5.433,15.297h-1.404l-5.468-15.297
			l-1.92-5.321h-0.148c0.049,1.01,0.085,2.082,0.11,3.214c0.024,1.133,0.038,2.18,0.038,3.141v16.997h-1.108V12.648z"/>
		<path fill="#FFFFFF" d="M75.852,28.315h-9.939l-3.067,8.72h-1.183l8.722-24.387h1.033l8.721,24.387h-1.256L75.852,28.315z
			 M75.481,27.28l-1.699-4.877c-0.517-1.479-1.004-2.882-1.46-4.212c-0.455-1.33-0.905-2.758-1.349-4.287h-0.146
			c-0.443,1.528-0.894,2.957-1.35,4.287c-0.455,1.33-0.942,2.734-1.459,4.212l-1.737,4.877H75.481z"/>
		<path fill="#FFFFFF" d="M82.725,12.648h1.182v14.041h0.074l12.414-14.041h1.479L90.04,21.59l8.867,15.445h-1.403l-8.351-14.558
			l-5.247,5.911v8.646h-1.182V12.648z"/>
	</g>
</g>
<polygon fill="#FFFFFF" points="3,6 20,6 20,10.937 28.898,6 98,6 98,1 3,1 "/>
</svg>
