<?xml version="1.0" encoding="utf-8"?>
<!-- Generator: Adobe Illustrator 16.0.0, SVG Export Plug-In . SVG Version: 6.00 Build 0)  -->
<!DOCTYPE svg PUBLIC "-//W3C//DTD SVG 1.1//EN" "http://www.w3.org/Graphics/SVG/1.1/DTD/svg11.dtd">
<svg version="1.1" id="Layer_1" xmlns="http://www.w3.org/2000/svg" xmlns:xlink="http://www.w3.org/1999/xlink" x="0px" y="0px"
	 width="600px" height="286px" viewBox="0 0 600 286" enable-background="new 0 0 600 286" xml:space="preserve">
<rect fill="#59778D" width="600" height="286"/>
<g>
	<g>
		<path fill="#FFFFFF" d="M161.271,124.449h25.478c3.885,0,7.484,0.285,10.798,0.857c3.312,0.571,6.206,1.581,8.683,3.027
			c2.474,1.447,4.416,3.353,5.827,5.712c1.408,2.362,2.114,5.333,2.114,8.912c0,1.677-0.249,3.352-0.743,5.026
			c-0.497,1.677-1.239,3.238-2.228,4.686c-0.991,1.446-2.285,2.741-3.885,3.884c-1.599,1.143-3.467,1.981-5.599,2.514v0.457
			c5.332,0.991,9.35,2.896,12.055,5.712c2.702,2.818,4.056,6.741,4.056,11.769c0,3.81-0.744,7.084-2.229,9.825
			c-1.486,2.742-3.542,5.01-6.169,6.798c-2.628,1.79-5.695,3.124-9.197,4c-3.505,0.876-7.275,1.312-11.311,1.312h-27.649V124.449z
			 M185.95,154.497c4.112,0,7.101-0.818,8.969-2.457c1.865-1.637,2.799-3.863,2.799-6.684c0-2.816-0.954-4.836-2.857-6.055
			c-1.904-1.217-4.837-1.828-8.797-1.828h-7.997v17.023H185.95z M187.55,185.916c9.214,0,13.824-3.388,13.824-10.168
			c0-3.273-1.142-5.656-3.427-7.141c-2.285-1.485-5.752-2.229-10.396-2.229h-9.483v19.537H187.55z"/>
		<path fill="#FFFFFF" d="M223.539,124.449h46.614v14.167h-29.819v14.967h25.364v14.054h-25.364v17.138h30.962v14.166h-47.757
			V124.449z"/>
		<path fill="#FFFFFF" d="M279.635,123.534h5.94l16.224,45.702l6.169,17.137h0.458l5.941-17.137l16.224-45.702h5.94v75.406h-3.655
			v-52.556c0-2.971,0.036-6.207,0.113-9.711c0.075-3.502,0.19-6.816,0.343-9.939h-0.456l-5.827,16.452l-16.796,47.3h-4.341
			l-16.909-47.3l-5.941-16.452h-0.456c0.151,3.124,0.266,6.437,0.343,9.939c0.074,3.504,0.113,6.74,0.113,9.711v52.556h-3.427
			V123.534z"/>
		<path fill="#FFFFFF" d="M388.401,171.978h-30.733l-9.483,26.963h-3.656l26.963-75.406h3.199l26.964,75.406h-3.885L388.401,171.978
			z M387.259,168.778l-5.256-15.082c-1.599-4.568-3.104-8.91-4.513-13.023c-1.409-4.114-2.8-8.53-4.17-13.254h-0.457
			c-1.372,4.724-2.762,9.14-4.171,13.254c-1.409,4.113-2.913,8.455-4.513,13.023l-5.37,15.082H387.259z"/>
		<path fill="#FFFFFF" d="M409.651,123.534h3.656v43.417h0.228l38.388-43.417h4.57l-24.221,27.649l27.42,47.757h-4.341
			l-25.822-45.015l-16.222,18.279v26.735h-3.656V123.534z"/>
	</g>
</g>
<polygon fill="#FFFFFF" points="162,102 217,102 217,118.242 243.217,102 458,102 458,89 162,89 "/>
</svg>
